<?xml version="1.0" encoding="UTF-8" standalone="no"?>
<!-- Created with Inkscape (http://www.inkscape.org/) -->

<svg
   width="40"
   height="40"
   viewBox="0 0 120 120"
   version="1.1"
   id="svg1"
   xml:space="preserve"
   xmlns:xlink="http://www.w3.org/1999/xlink"
   xmlns="http://www.w3.org/2000/svg"
   xmlns:svg="http://www.w3.org/2000/svg"><defs
     id="defs1"><rect
       x="43.045125"
       y="43.045125"
       width="29.610096"
       height="26.251339"
       id="rect14" /><rect
       x="18.384776"
       y="49.143921"
       width="17.677669"
       height="18.119611"
       id="rect24" /><rect
       x="50.259783"
       y="20.293176"
       width="16.402774"
       height="15.351315"
       id="rect2" /><linearGradient
       id="linearGradient17"><stop
         style="stop-color:#ffffff;stop-opacity:0.2;"
         offset="0"
         id="stop17" /><stop
         style="stop-color:#0f172a;stop-opacity:0;"
         offset="0.74506283"
         id="stop18" /></linearGradient><clipPath
       clipPathUnits="userSpaceOnUse"
       id="clipPath2"><rect
         style="font-variation-settings:'wght' 500;fill:#6b7280;fill-opacity:1;fill-rule:nonzero"
         id="rect3"
         width="40"
         height="40"
         x="40"
         y="38"
         ry="10"
         rx="10" /></clipPath><clipPath
       clipPathUnits="userSpaceOnUse"
       id="clipPath5"><rect
         style="font-variation-settings:'wght' 500;fill:#6b7280;fill-opacity:1;fill-rule:nonzero"
         id="rect6"
         width="40"
         height="40"
         x="40"
         y="38"
         ry="10"
         rx="10" /></clipPath><clipPath
       clipPathUnits="userSpaceOnUse"
       id="clipPath7"><rect
         style="font-variation-settings:'wght' 500;fill:#2563eb;fill-opacity:1;fill-rule:nonzero;stroke-width:1.26491"
         id="rect8"
         width="40"
         height="64"
         x="40"
         y="38"
         ry="16"
         rx="10" /></clipPath><clipPath
       clipPathUnits="userSpaceOnUse"
       id="clipPath9"><rect
         style="font-variation-settings:'wght' 500;fill:#2563eb;fill-opacity:1;fill-rule:nonzero;stroke-width:1.26491"
         id="rect10"
         width="40"
         height="64"
         x="40"
         y="39.599998"
         ry="16"
         rx="10" /></clipPath><filter
       style="color-interpolation-filters:sRGB"
       id="filter10"
       x="0"
       y="0"
       width="1"
       height="1"><feGaussianBlur
         stdDeviation="35"
         id="feGaussianBlur10" /></filter><filter
       style="color-interpolation-filters:sRGB;"
       id="filter14"
       x="-0.12"
       y="-0.12"
       width="1.24"
       height="1.24"><feGaussianBlur
         stdDeviation="2 2"
         result="blur"
         id="feGaussianBlur14" /></filter><clipPath
       clipPathUnits="userSpaceOnUse"
       id="clipPath14"><rect
         style="font-variation-settings:'wght' 500;fill:#2563eb;fill-opacity:1;fill-rule:nonzero"
         id="rect15"
         width="40"
         height="40"
         x="40"
         y="38"
         ry="10"
         rx="10" /></clipPath><linearGradient
       xlink:href="#linearGradient17"
       id="linearGradient18"
       x1="60"
       y1="21.099998"
       x2="60"
       y2="69.099998"
       gradientUnits="userSpaceOnUse" /><clipPath
       clipPathUnits="userSpaceOnUse"
       id="clipPath18"><rect
         style="font-variation-settings:'wght' 500;fill:#2563eb;fill-opacity:1;fill-rule:nonzero"
         id="rect19"
         width="40"
         height="40"
         x="40"
         y="38"
         ry="10"
         rx="10" /></clipPath><filter
       style="color-interpolation-filters:sRGB;"
       id="filter22"
       x="-0.1032"
       y="-0.24"
       width="1.2064"
       height="1.48"><feGaussianBlur
         stdDeviation="0.01 2"
         result="fbSourceGraphic"
         id="feGaussianBlur22" /><feColorMatrix
         result="fbSourceGraphicAlpha"
         in="fbSourceGraphic"
         values="0 0 0 -1 0 0 0 0 -1 0 0 0 0 -1 0 0 0 0 1 0"
         id="feColorMatrix23" /><feGaussianBlur
         id="feGaussianBlur23"
         stdDeviation="1.71 2"
         result="blur"
         in="fbSourceGraphic" /></filter><clipPath
       clipPathUnits="userSpaceOnUse"
       id="clipPath20"><circle
         style="fill:#0ea5e9;fill-opacity:1;stroke:none;stroke-width:0.331681;stroke-dasharray:none;stroke-opacity:1"
         id="circle21"
         cx="60"
         cy="58.436089"
         r="15.745777" /></clipPath><filter
       style="color-interpolation-filters:sRGB;"
       id="filter4"
       x="-0.35999999"
       y="-0.0012047238"
       width="1.72"
       height="1.0024094"><feGaussianBlur
         stdDeviation="0.21 0.01"
         result="blur"
         id="feGaussianBlur4" /></filter><clipPath
       clipPathUnits="userSpaceOnUse"
       id="clipPath4"><circle
         style="fill:#0ea5e9;fill-opacity:1;stroke:none;stroke-width:0.331681;stroke-dasharray:none;stroke-opacity:1"
         id="circle5"
         cx="60"
         cy="58.436089"
         r="15.745777" /></clipPath></defs><g
     id="layer1"><g
       id="g23"><rect
         style="font-variation-settings:'wght' 500;fill:#1e2937;fill-opacity:1;fill-rule:nonzero;filter:url(#filter22)"
         id="rect22"
         width="40"
         height="40"
         x="40"
         y="40"
         ry="10"
         rx="10" /><rect
         style="font-variation-settings:'wght' 500;fill:#0f172a;fill-opacity:1;fill-rule:nonzero"
         id="rect1-8"
         width="40"
         height="40"
         x="40"
         y="38"
         ry="10"
         rx="10" /><ellipse
         style="font-variation-settings:'wght' 500;fill:url(#linearGradient18);fill-opacity:1;fill-rule:nonzero;stroke-width:0.610275"
         id="path17"
         cx="60"
         cy="45.099998"
         rx="24"
         ry="8"
         clip-path="url(#clipPath18)" /><g
         id="Film_01"
         transform="matrix(0.40172938,0,0,0.40172938,-76.657143,23.554683)">
</g><g
         id="New_Symbol_8"
         transform="matrix(0.40172938,0,0,0.40172938,-76.657143,23.554683)">
</g><g
         id="g68"
         transform="matrix(0.36808968,0,0,0.36808968,-65.213854,26.691424)">
	
	
	
	<g
   id="g35"
   transform="translate(196.15584,3.7402595)">
		
		
		<g
   id="g34">
			
			<g
   id="g16"
   transform="matrix(1.1103512,0,0,1.2519873,-14.751394,-19.897595)"><g
     id="g33"
     style="fill:#a3e635;fill-opacity:1"
     transform="matrix(0.72726281,0,0,0.72726281,38.262509,23.967637)">
				<path
   style="fill:#a3e635;fill-opacity:1"
   d="m 191.964,108.664 c 0,0 -1.47,-0.572 -4.014,-1.641 -1.258,-0.59 -2.852,-1.051 -4.626,-1.713 -1.763,-0.688 -3.827,-1.236 -6.048,-1.91 -0.555,-0.165 -1.121,-0.336 -1.699,-0.507 -0.587,-0.137 -1.185,-0.275 -1.791,-0.417 -1.21,-0.293 -2.461,-0.595 -3.746,-0.906 -1.288,-0.291 -2.631,-0.486 -3.989,-0.744 -1.363,-0.234 -2.744,-0.539 -4.174,-0.68 -1.421,-0.185 -2.866,-0.375 -4.329,-0.566 -1.465,-0.156 -2.956,-0.229 -4.453,-0.363 -0.748,-0.059 -1.499,-0.119 -2.254,-0.18 -0.754,-0.037 -1.513,-0.036 -2.272,-0.063 -1.519,-0.041 -3.043,-0.082 -4.568,-0.121 -1.53,0.041 -3.061,0.081 -4.585,0.123 -0.768,0.025 -1.541,0.029 -2.298,0.065 -0.749,0.061 -1.495,0.12 -2.237,0.181 -1.489,0.134 -2.966,0.207 -4.428,0.361 -1.462,0.191 -2.906,0.382 -4.328,0.568 -1.43,0.138 -2.811,0.445 -4.172,0.682 -1.36,0.256 -2.702,0.451 -3.991,0.742 -1.285,0.311 -2.536,0.614 -3.746,0.906 -0.606,0.142 -1.203,0.28 -1.79,0.416 -0.578,0.172 -1.145,0.341 -1.699,0.508 -2.221,0.672 -4.284,1.221 -6.055,1.91 -1.78,0.663 -3.377,1.129 -4.625,1.711 -2.533,1.063 -4.01,1.637 -4.01,1.637 0,0 1.346,-0.868 3.752,-2.327 1.187,-0.775 2.712,-1.497 4.447,-2.376 0.437,-0.217 0.885,-0.442 1.349,-0.674 0.231,-0.116 0.467,-0.232 0.704,-0.354 0.242,-0.103 0.489,-0.207 0.738,-0.313 1.006,-0.41 2.06,-0.842 3.161,-1.293 0.553,-0.225 1.116,-0.453 1.69,-0.687 0.584,-0.198 1.179,-0.398 1.783,-0.603 1.216,-0.393 2.474,-0.797 3.767,-1.213 1.3,-0.391 2.653,-0.689 4.03,-1.051 1.377,-0.354 2.788,-0.709 4.24,-0.934 1.45,-0.252 2.925,-0.508 4.418,-0.766 1.501,-0.221 3.038,-0.344 4.582,-0.508 0.771,-0.079 1.548,-0.158 2.325,-0.234 0.771,-0.06 1.536,-0.066 2.306,-0.098 1.553,-0.052 3.112,-0.104 4.671,-0.156 1.564,0.054 3.129,0.105 4.688,0.158 0.778,0.029 1.558,0.041 2.331,0.101 0.771,0.078 1.543,0.155 2.31,0.233 1.533,0.164 3.059,0.289 4.557,0.508 1.492,0.258 2.967,0.515 4.417,0.767 1.452,0.224 2.861,0.582 4.24,0.935 1.376,0.361 2.73,0.659 4.03,1.049 1.291,0.417 2.549,0.822 3.766,1.215 0.605,0.203 1.2,0.404 1.784,0.602 0.574,0.233 1.138,0.463 1.689,0.686 1.102,0.451 2.156,0.883 3.159,1.295 0.251,0.105 0.498,0.209 0.741,0.313 0.237,0.119 0.474,0.236 0.706,0.353 0.465,0.232 0.915,0.458 1.352,0.677 1.741,0.879 3.27,1.604 4.446,2.373 2.394,1.453 3.748,2.323 3.748,2.323 z"
   id="path33" />
			</g><path
     style="fill:#a3e635;fill-opacity:1;stroke-width:0.727263"
     d="m 136.38045,87.743495 h 3.02832 v -3.028323 h -3.02832 z m 5.03193,0 h 3.02832 v -3.028323 h -3.02832 z M 176.8868,94.512133 163.94371,81.762485 V 68.685573 l -6.2341,-6.234097 v 13.169275 l -12.35838,-12.175107 -2.42469,-2.387604 -2.42397,2.387604 -31.5363,31.066489 33.96027,-23.533501 z M 142.98763,63.66455 v 5.09084 l -21.39316,15.514697 z m -6.60718,19.315373 h 3.02832 v -3.028322 h -3.02832 z m 5.03193,0 h 3.02832 v -3.028322 h -3.02832 z m 5.03193,0 h 3.02832 v -3.028322 h -3.02832 z m 0,4.763572 h 3.02832 v -3.028323 h -3.02832 z"
     id="path34" /></g>
		</g>
	</g>
	
</g></g></g></svg>
