<?xml version="1.0" encoding="UTF-8" standalone="no"?>
<!-- Created with Inkscape (http://www.inkscape.org/) -->

<svg
   width="120"
   height="120"
   viewBox="0 0 120 120"
   version="1.1"
   id="svg1"
   xml:space="preserve"
   xmlns:xlink="http://www.w3.org/1999/xlink"
   xmlns="http://www.w3.org/2000/svg"
   xmlns:svg="http://www.w3.org/2000/svg"><defs
     id="defs1"><linearGradient
       id="linearGradient17"><stop
         style="stop-color:#f1f5f9;stop-opacity:0.2;"
         offset="0"
         id="stop17" /><stop
         style="stop-color:#ffffff;stop-opacity:1;"
         offset="1"
         id="stop18" /></linearGradient><clipPath
       clipPathUnits="userSpaceOnUse"
       id="clipPath2"><rect
         style="font-variation-settings:'wght' 500;fill:#6b7280;fill-opacity:1;fill-rule:nonzero"
         id="rect3"
         width="40"
         height="40"
         x="40"
         y="38"
         ry="10"
         rx="10" /></clipPath><clipPath
       clipPathUnits="userSpaceOnUse"
       id="clipPath5"><rect
         style="font-variation-settings:'wght' 500;fill:#6b7280;fill-opacity:1;fill-rule:nonzero"
         id="rect6"
         width="40"
         height="40"
         x="40"
         y="38"
         ry="10"
         rx="10" /></clipPath><clipPath
       clipPathUnits="userSpaceOnUse"
       id="clipPath7"><rect
         style="font-variation-settings:'wght' 500;fill:#2563eb;fill-opacity:1;fill-rule:nonzero;stroke-width:1.26491"
         id="rect8"
         width="40"
         height="64"
         x="40"
         y="38"
         ry="16"
         rx="10" /></clipPath><clipPath
       clipPathUnits="userSpaceOnUse"
       id="clipPath9"><rect
         style="font-variation-settings:'wght' 500;fill:#2563eb;fill-opacity:1;fill-rule:nonzero;stroke-width:1.26491"
         id="rect10"
         width="40"
         height="64"
         x="40"
         y="39.599998"
         ry="16"
         rx="10" /></clipPath><filter
       style="color-interpolation-filters:sRGB"
       id="filter10"
       x="0"
       y="0"
       width="1"
       height="1"><feGaussianBlur
         stdDeviation="35"
         id="feGaussianBlur10" /></filter><filter
       style="color-interpolation-filters:sRGB;"
       id="filter14"
       x="-0.12"
       y="-0.12"
       width="1.24"
       height="1.24"><feGaussianBlur
         stdDeviation="2 2"
         result="blur"
         id="feGaussianBlur14" /></filter><clipPath
       clipPathUnits="userSpaceOnUse"
       id="clipPath14"><rect
         style="font-variation-settings:'wght' 500;fill:#2563eb;fill-opacity:1;fill-rule:nonzero"
         id="rect15"
         width="40"
         height="40"
         x="40"
         y="38"
         ry="10"
         rx="10" /></clipPath><linearGradient
       xlink:href="#linearGradient17"
       id="linearGradient18"
       x1="60"
       y1="21.099998"
       x2="60"
       y2="69.099998"
       gradientUnits="userSpaceOnUse" /><clipPath
       clipPathUnits="userSpaceOnUse"
       id="clipPath18"><rect
         style="font-variation-settings:'wght' 500;fill:#2563eb;fill-opacity:1;fill-rule:nonzero"
         id="rect19"
         width="40"
         height="40"
         x="40"
         y="38"
         ry="10"
         rx="10" /></clipPath><clipPath
       id="clip0_10_553"><rect
         width="310"
         height="444"
         fill="white"
         transform="translate(101 34)"
         id="rect5" /></clipPath></defs><g
     id="g5"><rect
       style="font-variation-settings:'wght' 500;fill:#1e2937;fill-opacity:0.4;fill-rule:nonzero;filter:url(#filter14)"
       id="rect1"
       width="40"
       height="40"
       x="40"
       y="40"
       ry="10"
       rx="10" /><rect
       style="font-variation-settings:'wght' 500;fill:#f1f5f9;fill-opacity:1;fill-rule:nonzero"
       id="rect1-8"
       width="40"
       height="40"
       x="40"
       y="38"
       ry="10"
       rx="10" /><ellipse
       style="font-variation-settings:'wght' 500;fill:url(#linearGradient18);fill-opacity:1;fill-rule:nonzero;stroke-width:0.610275"
       id="path17"
       cx="60"
       cy="45.099998"
       rx="24"
       ry="8"
       clip-path="url(#clipPath18)" /></g><g
     style="fill:none"
     id="g11"
     transform="matrix(0.06756757,0,0,0.06756757,42.702702,41.756388)"><g
       clip-path="url(#clip0_10_553)"
       id="g5-8"><path
         d="M 302.925,41.3711 C 288.18,36.6883 272.046,34 255.653,34 208.381,34 165.793,55.4195 137.256,89.3266 l 73.12,61.3964 z"
         fill="#1a73e8"
         id="path1-8" /><path
         d="M 137.256,89.3267 C 114.791,116.123 101,151.07 101,188.62 c 0,29.137 5.725,52.638 15.439,73.797 l 93.937,-111.693 z"
         fill="#ea4335"
         id="path2" /><path
         d="m 256,129.564 c 32.873,0 59.328,26.449 59.328,59.316 0,14.395 -5.377,27.836 -14.051,38.243 0,0 46.665,-55.674 92.202,-109.7 C 374.657,81.175 342.13,53.6852 302.925,41.2844 L 210.376,150.723 C 221.478,137.976 237.525,129.564 256,129.564 Z"
         fill="#4285f4"
         id="path3" /><path
         d="m 256,247.935 c -32.873,0 -59.328,-26.449 -59.328,-59.316 0,-14.395 5.03,-27.836 13.791,-37.896 L 116.439,262.33 c 16.134,35.555 42.936,64.346 70.431,100.247 L 301.277,226.776 C 290.175,239.87 274.128,247.935 256,247.935 Z"
         fill="#fbbc04"
         id="path4" /><path
         d="M 299.282,400.213 C 350.978,319.392 411,282.883 411,188.967 c 0,-25.843 -6.332,-49.95 -17.434,-71.457 L 186.87,362.664 c 8.761,11.36 17.781,24.455 26.455,37.896 31.573,48.65 22.812,77.44 42.935,77.44 20.123,0 11.449,-29.137 43.022,-77.787 z"
         fill="#34a853"
         id="path5" /></g></g></svg>
